<svg aria-hidden="true" style="position: absolute; width: 0; height: 0; overflow: hidden;" version="1.1" xmlns="http://www.w3.org/2000/svg" xmlns:xlink="http://www.w3.org/1999/xlink">
<defs>
<symbol id="icon-bookmark" viewBox="0 0 20 20">
<path d="M14 2v17l-4-4-4 4v-17c0-0.553 0.585-1.020 1-1h6c0.689-0.020 1 0.447 1 1z"></path>
</symbol>
<symbol id="icon-chevron-thin-right" viewBox="0 0 20 20">
<path d="M13.25 10l-7.141-7.42c-0.268-0.27-0.268-0.707 0-0.979 0.268-0.27 0.701-0.27 0.969 0l7.83 7.908c0.268 0.271 0.268 0.709 0 0.979l-7.83 7.908c-0.268 0.271-0.701 0.27-0.969 0s-0.268-0.707 0-0.979l7.141-7.417z"></path>
</symbol>
<symbol id="icon-aircraft-take-off" viewBox="0 0 20 20">
<path d="M19.87 6.453c0.119 0.257 0.127 1.29-4.884 3.642l-4.913 2.306c-1.71 0.803-4.191 1.859-5.285 2.151-0.766 0.204-1.497-0.316-1.497-0.316s-2.206-1.975-2.792-2.419c-0.585-0.444-0.535-0.67 0.215-0.91 0.467-0.149 3.13 0.493 4.265 0.78 1.339-0.8 2.562-1.486 3.141-1.798-1.396-1.033-4.008-2.962-4.841-3.55-0.799-0.565 0.010-0.768 0.010-0.768 0.368-0.099 1.162-0.228 1.562-0.144 2.721 0.569 7.263 2.071 7.611 2.186 0.832-0.436 2.128-1.092 2.922-1.465 2.075-0.974 4.327-0.037 4.486 0.305z"></path>
</symbol>
<symbol id="icon-chat" viewBox="0 0 20 20">
<path d="M5.8 12.2v-6.2h-3.8c-1.1 0-2 0.9-2 2v6c0 1.1 0.9 2 2 2h1v3l3-3h5c1.1 0 2-0.9 2-2v-1.82c-0.064 0.014-0.132 0.021-0.2 0.021l-7-0.001zM18 1h-9c-1.1 0-2 0.9-2 2v8h7l3 3v-3h1c1.1 0 2-0.899 2-2v-6c0-1.1-0.9-2-2-2z"></path>
</symbol>
<symbol id="icon-credit-card" viewBox="0 0 20 20">
<path d="M18 3h-16c-1.101 0-2 0.9-2 2v10c0 1.1 0.899 2 2 2h16c1.1 0 2-0.9 2-2v-10c0-1.1-0.9-2-2-2zM18 15h-16v-6h16v6zM18 6h-16v-1h16v1zM4 11.1v0.6h0.6v-0.6h-0.6zM7.6 12.299v0.601h1.2v-0.601h0.6v-0.6h0.6v-0.6h-1.2v0.6h-0.601v0.6h-0.599zM10 12.9v-0.601h-0.601v0.601h0.601zM7 12.9v-0.601h-1.2v0.601h1.2zM7.6 11.699h0.6v-0.6h-1.2v1.199h0.6v-0.599zM5.199 12.299h0.601v-0.6h0.6v-0.6h-1.2v0.6h-0.6v0.6h-0.6v0.601h1.199v-0.601z"></path>
</symbol>
<symbol id="icon-credit" viewBox="0 0 20 20">
<path d="M11 16.755v2.245h-2v-2.143c-1.712-0.1-3.066-0.589-4.241-1.797l1.718-1.74c0.859 0.87 2.023 1.16 3.282 1.16 1.565 0 2.405-0.599 2.405-1.702 0-0.483-0.133-0.889-0.42-1.16-0.267-0.251-0.572-0.387-1.202-0.483l-1.642-0.232c-1.164-0.174-2.022-0.541-2.634-1.141-0.648-0.657-0.973-1.546-0.973-2.707 0-2.155 1.382-3.743 3.707-4.1v-1.955h2v1.932c1.382 0.145 2.465 0.62 3.415 1.551l-1.679 1.682c-0.859-0.832-1.889-0.947-2.787-0.947-1.412 0-2.099 0.792-2.099 1.74 0 0.348 0.115 0.716 0.401 0.986 0.267 0.252 0.706 0.464 1.26 0.541l1.602 0.232c1.241 0.174 2.023 0.522 2.596 1.063 0.726 0.696 1.050 1.702 1.050 2.92 0 2.25-1.567 3.662-3.759 4.055z"></path>
</symbol>
<symbol id="icon-home" viewBox="0 0 20 20">
<path d="M18.672 11h-1.672v6c0 0.445-0.194 1-1 1h-4v-6h-4v6h-4c-0.806 0-1-0.555-1-1v-6h-1.672c-0.598 0-0.47-0.324-0.060-0.748l8.024-8.032c0.195-0.202 0.451-0.302 0.708-0.312 0.257 0.010 0.513 0.109 0.708 0.312l8.023 8.031c0.411 0.425 0.539 0.749-0.059 0.749z"></path>
</symbol>
<symbol id="icon-key" viewBox="0 0 20 20">
<path d="M17.691 4.725c-0.503-2.977-3.22-4.967-6.069-4.441s-5.256 2.816-4.753 5.795c0.107 0.641 0.408 1.644 0.763 2.365l-5.175 7.723c-0.191 0.285-0.299 0.799-0.242 1.141l0.333 1.971c0.058 0.342 0.372 0.572 0.7 0.514l1.516-0.281c0.328-0.059 0.744-0.348 0.924-0.639l2.047-3.311 0.018-0.022 1.386-0.256 2.39-3.879c0.785 0.139 1.912 0.092 2.578-0.031 2.848-0.526 4.087-3.67 3.584-6.649zM15.166 6.252c-0.784 1.17-1.584 0.346-2.703-0.475-1.119-0.818-2.135-1.322-1.352-2.492s2.326-1.455 3.447-0.635c1.12 0.819 1.391 2.432 0.608 3.602z"></path>
</symbol>
<symbol id="icon-location-pin" viewBox="0 0 20 20">
<path d="M10 2.009c-2.762 0-5 2.229-5 4.99 0 4.774 5 11 5 11s5-6.227 5-11c0-2.76-2.238-4.99-5-4.99zM10 9.76c-1.492 0-2.7-1.209-2.7-2.7s1.208-2.7 2.7-2.7c1.49 0 2.699 1.209 2.699 2.7s-1.209 2.7-2.699 2.7z"></path>
</symbol>
<symbol id="icon-magnifying-glass" viewBox="0 0 20 20">
<path d="M17.545 15.467l-3.779-3.779c0.57-0.935 0.898-2.035 0.898-3.21 0-3.417-2.961-6.377-6.378-6.377s-6.186 2.769-6.186 6.186c0 3.416 2.961 6.377 6.377 6.377 1.137 0 2.2-0.309 3.115-0.844l3.799 3.801c0.372 0.371 0.975 0.371 1.346 0l0.943-0.943c0.371-0.371 0.236-0.84-0.135-1.211zM4.004 8.287c0-2.366 1.917-4.283 4.282-4.283s4.474 2.107 4.474 4.474c0 2.365-1.918 4.283-4.283 4.283s-4.473-2.109-4.473-4.474z"></path>
</symbol>
<symbol id="icon-price-tag" viewBox="0 0 20 20">
<path d="M19.388 0.405c-0.111-0.314-0.454-0.48-0.769-0.371s-0.481 0.455-0.372 0.77c0.929 2.67-0.915 4.664-2.321 5.732l-0.568-0.814c-0.191-0.273-0.618-0.5-0.95-0.504l-3.188 0.014c-0.332-0.006-0.825 0.146-1.097 0.338l-9.394 6.587c-0.455 0.32-0.565 0.947-0.247 1.404l4.269 6.108c0.32 0.455 0.831 0.4 1.287 0.082l9.394-6.588c0.27-0.191 0.582-0.603 0.692-0.918l0.998-3.145c0.11-0.314 0.043-0.793-0.148-1.066l-0.346-0.496c1.888-1.447 3.848-4.004 2.76-7.133zM15.017 9.763c-0.727 0.51-1.731 0.332-2.24-0.396-0.511-0.73-0.333-1.734 0.395-2.246 0.578-0.405 1.328-0.376 1.868 0.017-0.272 0.164-0.459 0.26-0.494 0.275-0.301 0.143-0.43 0.504-0.288 0.805 0.104 0.219 0.321 0.348 0.547 0.348 0.086 0 0.174-0.020 0.257-0.059 0.194-0.092 0.402-0.201 0.619-0.33 0.097 0.594-0.139 1.217-0.664 1.586z"></path>
</symbol>
<symbol id="icon-shopping-cart" viewBox="0 0 20 20">
<path d="M13 17c0 1.104 0.894 2 2 2 1.104 0 2-0.896 2-2 0-1.106-0.896-2-2-2-1.106 0-2 0.894-2 2zM3 17c0 1.104 0.895 2 2 2 1.103 0 2-0.896 2-2 0-1.106-0.897-2-2-2-1.105 0-2 0.894-2 2zM6.547 12.172l11.068-3.162c0.211-0.061 0.385-0.289 0.385-0.51v-5.5h-14v-1.6c0-0.22-0.181-0.4-0.399-0.4h-3.202c-0.219 0-0.399 0.18-0.399 0.4v1.6h2l1.91 8.957 0.090 0.943v1.649c0 0.219 0.18 0.4 0.4 0.4h13.2c0.22 0 0.4-0.182 0.4-0.4v-1.549h-11.248c-1.15 0-1.174-0.551-0.205-0.828z"></path>
</symbol>
<symbol id="icon-star" viewBox="0 0 20 20">
<path d="M10 1.3l2.388 6.722h6.412l-5.232 3.948 1.871 6.928-5.439-4.154-5.438 4.154 1.87-6.928-5.233-3.948h6.412l2.389-6.722z"></path>
</symbol>
<symbol id="icon-thumbs-up" viewBox="0 0 20 20">
<path d="M13.648 7.362c-0.133-0.355 3.539-3.634 1.398-6.291-0.501-0.621-2.201 2.975-4.615 4.603-1.332 0.898-4.431 2.81-4.431 3.867v6.842c0 1.271 4.914 2.617 8.648 2.617 1.369 0 3.352-8.576 3.352-9.938 0-1.368-4.221-1.344-4.352-1.7zM5 7.457c-0.658 0-3 0.4-3 3.123v4.848c0 2.721 2.342 3.021 3 3.021 0.657 0-1-0.572-1-2.26v-6.373c0-1.768 1.657-2.359 1-2.359z"></path>
</symbol>
</defs>
</svg>
